HIERARCHY
ROOT Hips
{
	OFFSET 0.000000 0.000000 0.000000
	CHANNELS 6 Xposition Yposition Zposition Zrotation Yrotation Xrotation 
	JOINT LHipJoint
	{
		OFFSET 0.000000 0.000000 0.000000
		CHANNELS 3 Zrotation Yrotation Xrotation
		JOINT LeftUpLeg
		{
			OFFSET 1.363060 -1.794630 0.839290
			CHANNELS 3 Zrotation Yrotation Xrotation
			JOINT LeftLeg
			{
				OFFSET 2.448110 -6.726130 0.000000
				CHANNELS 3 Zrotation Yrotation Xrotation
				JOINT LeftFoot
				{
					OFFSET 2.562200 -7.039590 0.000000
					CHANNELS 3 Zrotation Yrotation Xrotation
					JOINT LeftToeBase
					{
						OFFSET 0.157640 -0.433110 2.322550
						CHANNELS 3 Zrotation Yrotation Xrotation
						End Site
						{
							OFFSET 0.000000 0.000000 0.000000
						}
					}
				}
			}
		}
	}
	JOINT RHipJoint
	{
		OFFSET 0.000000 0.000000 0.000000
		CHANNELS 3 Zrotation Yrotation Xrotation
		JOINT RightUpLeg
		{
			OFFSET -1.305520 -1.794630 0.839290
			CHANNELS 3 Zrotation Yrotation Xrotation
			JOINT RightLeg
			{
				OFFSET -2.542530 -6.985550 0.000000
				CHANNELS 3 Zrotation Yrotation Xrotation
				JOINT RightFoot
				{
					OFFSET -2.568260 -7.056230 0.000000
					CHANNELS 3 Zrotation Yrotation Xrotation
					JOINT RightToeBase
					{
						OFFSET -0.164730 -0.452590 2.363150
						CHANNELS 3 Zrotation Yrotation Xrotation
						End Site
						{
							OFFSET 0.000000 0.000000 0.000000
						}
					}
				}
			}
		}
	}
}
MOTION
Frames: 33
Frame Time: 0.008333
-22.336988 15.719191 -1.348913 -49.101316 84.526103 -23.901178 -8.179687 -2.272123 -2.384681 -10.512005 2.136698 -66.745740 -1.053518 4.037715 54.428744 2.190997 8.844206 -13.137844 -0.575800 -0.000000 -15.049199 11.407652 -0.831976 -6.534303 6.342040 -12.384101 -19.155966 2.005062 -3.839774 51.675090 0.869858 11.682503 -13.596012 -1.306301 -0.000000 -75.097601
-22.197820 15.708848 -1.379126 -49.541425 84.326258 -24.649730 -8.219001 -2.270177 -2.450634 -10.368078 2.269714 -66.180729 -0.998852 4.070483 55.345766 2.262345 9.120490 -14.118874 -0.779600 -0.000000 -14.886100 11.492315 -0.893044 -6.515583 6.068134 -12.459395 -18.911926 1.814866 -3.919585 52.460486 0.891473 11.653458 -12.179047 -1.081000 0.000000 -76.251300
-22.059477 15.699724 -1.408908 -49.762057 84.111336 -25.167564 -8.261451 -2.264028 -2.509484 -10.205722 2.384549 -65.593242 -0.943360 4.098617 56.211929 2.340758 9.444999 -15.053087 -0.987600 0.000000 -14.933200 11.569545 -0.945250 -6.494718 5.825260 -12.500716 -18.715164 1.619223 -3.995560 53.279114 0.894843 11.521486 -10.787694 -0.840600 -0.000001 -77.049601
-21.922455 15.691959 -1.437967 -49.771729 83.886600 -25.460796 -8.306366 -2.252554 -2.561216 -10.033230 2.481052 -64.990941 -0.888225 4.122938 57.024706 2.424224 9.807671 -15.936521 -1.199200 0.000000 -15.115500 11.640709 -0.987620 -6.473328 5.611774 -12.520089 -18.575634 1.416982 -4.068359 54.135423 0.881390 11.289802 -9.393865 -0.588500 0.000000 -77.534601
-21.786965 15.685625 -1.466075 -49.584788 83.656278 -25.544433 -8.353264 -2.235036 -2.608119 -9.861630 2.566422 -64.376796 -0.835817 4.144420 57.779969 2.509984 10.192773 -16.773088 -1.414500 -0.000000 -15.358200 11.706370 -1.019659 -6.452338 5.426016 -12.523671 -18.495453 1.208264 -4.138046 55.028630 0.851900 10.963288 -7.982304 -0.330200 0.000000 -77.726099
-21.653020 15.680907 -1.493082 -49.235473 83.429197 -25.449241 -8.401545 -2.210547 -2.648898 -9.701169 2.638135 -63.757247 -0.787895 4.162955 58.471960 2.596530 10.588942 -17.568547 -1.633400 0.000000 -15.599600 11.768111 -1.040839 -6.433430 5.263807 -12.531710 -18.488190 0.991186 -4.205289 55.960561 0.806421 10.545682 -6.499831 -0.064600 0.000000 -77.701200
-21.521187 15.677853 -1.518901 -48.761989 83.209684 -25.216576 -8.450938 -2.179633 -2.686983 -9.560833 2.706645 -63.129734 -0.747174 4.178891 59.094829 2.681162 10.978586 -18.333485 -1.855599 -0.000000 -15.793201 11.825773 -1.051487 -6.417591 5.125108 -12.548166 -18.549299 0.767115 -4.269810 56.925752 0.744076 10.038038 -4.936586 0.201500 0.000001 -77.449700
-21.390877 15.676574 -1.543491 -48.175655 83.005672 -24.855825 -8.501287 -2.141239 -2.721083 -9.450418 2.770977 -62.497040 -0.715304 4.191903 59.642577 2.763081 11.353124 -19.075233 -2.080700 -0.000000 -15.914700 11.879857 -1.050471 -6.405961 5.004161 -12.590762 -18.688755 0.535906 -4.331336 57.922631 0.662981 9.437394 -3.255000 0.464799 0.000000 -77.021300
-21.262719 15.677078 -1.566931 -47.525738 82.820398 -24.420255 -8.552571 -2.096940 -2.754174 -9.373423 2.839901 -61.854060 -0.693845 4.201723 60.111608 2.840465 11.700174 -19.801794 -2.307800 0.000000 -15.956500 11.929507 -1.038379 -6.399535 4.903048 -12.660995 -18.899289 0.300995 -4.389450 58.944096 0.560880 8.733729 -1.466399 0.711400 0.000000 -76.362500
-21.136604 15.679378 -1.589345 -46.828751 82.657189 -23.928022 -8.604933 -2.047101 -2.786832 -9.333116 2.916762 -61.198283 -0.683463 4.207988 60.499681 2.912628 12.014118 -20.516183 -2.535701 0.000000 -15.928900 11.973963 -1.014788 -6.399147 4.820723 -12.764570 -19.179847 0.065715 -4.443702 59.986432 0.435329 7.911573 0.415330 0.924400 -0.000000 -75.435400
-21.012355 15.683418 -1.610875 -46.107958 82.517670 -23.404990 -8.658516 -1.992654 -2.820133 -9.329553 3.005562 -60.526180 -0.684161 4.210330 60.807049 2.978991 12.291417 -21.218160 -2.762400 -0.000000 -15.853900 12.012208 -0.979764 -6.405586 4.758101 -12.902630 -19.525932 -0.165210 -4.493976 61.045867 0.284566 6.950493 2.348192 1.079600 -0.000000 -74.168300
-20.890037 15.689119 -1.631757 -45.398998 82.401919 -22.889973 -8.713415 -1.935325 -2.855259 -9.358006 3.109499 -59.833823 -0.695108 4.208293 61.036868 3.039138 12.531024 -21.904572 -2.985400 -0.000000 -15.759900 12.043254 -0.934349 -6.419700 4.719297 -13.072420 -19.930286 -0.386426 -4.540853 62.119238 0.108172 5.827291 4.264375 1.147701 0.000000 -72.471800
-20.769640 15.696406 -1.652053 -44.672358 82.309115 -22.354258 -8.769929 -1.874489 -2.891786 -9.418998 3.229505 -59.121807 -0.715396 4.202126 61.192884 3.093355 12.736175 -22.568425 -3.202300 -0.000000 -15.675300 12.066208 -0.877949 -6.441672 4.701220 -13.273675 -20.393415 -0.594048 -4.585080 63.208021 -0.093019 4.520815 6.088842 1.100300 -0.000001 -70.300400
-20.651006 15.705124 -1.672017 -43.987991 82.237047 -21.861422 -8.827700 -1.812844 -2.931108 -9.501410 3.366663 -58.387655 -0.742958 4.191444 61.283518 3.141354 12.908901 -23.203147 -3.410400 -0.000000 -15.625200 12.080949 -0.813408 -6.472582 4.711693 -13.498825 -20.905390 -0.783822 -4.628996 64.310132 -0.315701 3.017308 7.715951 0.913100 0.000000 -67.587400
-20.534206 15.715132 -1.691800 -43.358202 82.183258 -21.424401 -8.886459 -1.751162 -2.973050 -9.598701 3.519583 -57.633031 -0.775959 4.176361 61.316511 3.183542 13.054239 -23.802281 -3.607600 -0.000001 -15.624800 12.087668 -0.742540 -6.512638 4.753331 -13.742734 -21.463672 -0.954042 -4.674970 65.425007 -0.555502 1.316446 9.049108 0.577500 0.000000 -64.353400
-20.419314 15.726342 -1.711408 -42.767288 82.145176 -21.026034 -8.946014 -1.689317 -3.016757 -9.706916 3.685801 -56.862781 -0.812803 4.157415 61.299521 3.220516 13.177763 -24.359972 -3.792600 0.000000 -15.677400 12.086719 -0.666728 -6.561317 4.825413 -14.000384 -22.069797 -1.104858 -4.725411 66.552353 -0.807034 -0.562426 9.999384 0.105300 -0.000000 -60.651701
-20.305879 15.738628 -1.730919 -42.241051 82.119982 -20.691698 -9.005653 -1.628542 -3.061921 -9.817870 3.861795 -56.081451 -0.851704 4.134840 61.241230 3.252838 13.284240 -24.874181 -3.964899 0.000000 -15.776901 12.079035 -0.588656 -6.617961 4.932221 -14.263497 -22.722069 -1.237261 -4.782761 67.686838 -1.064137 -2.576851 10.494089 -0.467100 -0.000000 -56.585599
-20.194251 15.751871 -1.750370 -41.794382 82.104738 -20.433033 -9.064652 -1.569567 -3.107793 -9.925472 4.043582 -55.295777 -0.891356 4.109027 61.148736 3.281208 13.377740 -25.345347 -4.124600 0.000000 -15.908000 12.065618 -0.510641 -6.680993 5.076731 -14.523428 -23.421795 -1.352996 -4.848692 68.821513 -1.320512 -4.662136 10.490955 -1.081300 -0.000001 -52.284600
-20.084060 15.765996 -1.769731 -41.426997 82.097194 -20.245889 -9.122337 -1.512745 -3.153462 -10.026000 4.226970 -54.513432 -0.930959 4.080492 61.027590 3.306457 13.461797 -25.776401 -4.272800 0.000001 -16.051099 12.047281 -0.434332 -6.747931 5.260230 -14.770752 -24.172506 -1.453698 -4.923890 69.947349 -1.569562 -6.735169 9.980587 -1.665201 0.000000 -47.881300
-19.975627 15.780930 -1.789018 -41.177427 82.094682 -20.164812 -9.177798 -1.459502 -3.198457 -10.112513 4.408562 -53.741227 -0.969786 4.049426 60.882818 3.329195 13.537975 -26.172858 -4.410600 0.000000 -16.186100 12.024961 -0.361899 -6.815886 5.488441 -14.994585 -24.974986 -1.540176 -5.007851 71.049839 -1.805331 -8.709584 8.999437 -2.148500 -0.000000 -43.553500
-19.868334 15.796582 -1.808152 -41.041324 82.095450 -20.180629 -9.230502 -1.409996 -3.241979 -10.184433 4.585018 -52.986329 -1.007841 4.016211 60.716596 3.350204 13.607671 -26.540990 -4.539800 0.000000 -16.296100 11.998982 -0.294012 -6.881422 5.761759 -15.186107 -25.833603 -1.612619 -5.099177 72.116662 -2.021523 -10.501111 7.610311 -2.474400 -0.000000 -39.402700
-19.762633 15.812910 -1.827084 -41.020735 82.098160 -20.291557 -9.280056 -1.364602 -3.283666 -10.240818 4.754281 -52.253530 -1.045302 3.981082 60.530037 3.369980 13.670963 -26.886950 -4.661800 0.000000 -16.370900 11.969373 -0.230881 -6.941121 6.080959 -15.337240 -26.751349 -1.670498 -5.195652 73.132927 -2.212299 -12.040830 5.906823 -2.612501 0.000000 -35.538700
-19.657991 15.829831 -1.845706 -41.107251 82.102279 -20.485784 -9.326296 -1.323439 -3.323287 -10.282916 4.914708 -51.546116 -1.082577 3.944157 60.322625 3.388989 13.727768 -27.216272 -4.777600 -0.000000 -16.407700 11.935804 -0.172080 -6.991967 6.444451 -15.442662 -27.729425 -1.713164 -5.294615 74.083529 -2.372460 -13.281002 4.003485 -2.563400 0.000000 -32.075200
-19.554477 15.847276 -1.863969 -41.303883 82.107275 -20.764570 -9.369207 -1.286795 -3.361043 -10.310773 5.066310 -50.864628 -1.119971 3.905459 60.093941 3.407327 13.777093 -27.532780 -4.888000 -0.000000 -16.412400 11.897813 -0.117029 -7.031425 6.851663 -15.498356 -28.766829 -1.740235 -5.393271 74.952719 -2.497913 -14.198291 2.023321 -2.356700 0.000000 -29.119600
-19.452110 15.865158 -1.881761 -41.583305 82.113521 -21.100851 -9.409099 -1.254107 -3.397399 -10.328495 5.209485 -50.207263 -1.157922 3.865087 59.842403 3.425081 13.818960 -27.837604 -4.993200 -0.000000 -16.398000 11.854634 -0.064185 -7.057871 7.297006 -15.504069 -29.860611 -1.752095 -5.489011 75.726303 -2.585853 -14.790746 0.082811 -2.041200 -0.000000 -26.762200
-19.350306 15.883401 -1.898969 -41.930109 82.121133 -21.480294 -9.446376 -1.225148 -3.433130 -10.337766 5.345514 -49.570371 -1.196663 3.823086 59.567103 3.441968 13.852405 -28.130338 -5.092600 0.000001 -16.381900 11.805585 -0.012298 -7.070308 7.776086 -15.459590 -31.004983 -1.749879 -5.579564 76.391315 -2.635346 -15.075802 -1.716488 -1.673200 0.000000 -25.072899
-19.249399 15.901932 -1.915567 -42.337498 82.130492 -21.898448 -9.481365 -1.199648 -3.469230 -10.339843 5.476210 -48.949422 -1.236195 3.779554 59.268207 3.457640 13.877057 -28.409162 -5.185700 -0.000000 -16.381800 11.750245 0.039614 -7.068708 8.284403 -15.366605 -32.191523 -1.735026 -5.663262 76.937281 -2.647313 -15.084048 -3.303653 -1.303400 -0.000001 -24.046899
-19.148987 15.920637 -1.931402 -42.775744 82.142166 -22.329468 -9.514698 -1.176919 -3.506980 -10.337230 5.604145 -48.338589 -1.276509 3.734796 58.946091 3.471584 13.892829 -28.669828 -5.270900 0.000000 -16.416700 11.688099 0.092899 -7.053258 8.814900 -15.226036 -33.410334 -1.709478 -5.738658 77.356983 -2.625400 -14.859716 -4.634224 -0.970200 0.000000 -23.664700
-19.049298 15.939458 -1.946441 -43.235120 82.156135 -22.766649 -9.546719 -1.156576 -3.547670 -10.330590 5.731471 -47.732879 -1.317397 3.689125 58.602605 3.483304 13.899546 -28.909186 -5.347600 0.000000 -16.496900 11.619028 0.148382 -7.024834 9.361996 -15.038915 -34.650873 -1.674638 -5.804978 77.646788 -2.574946 -14.451442 -5.700167 -0.694300 -0.000000 -23.829299
-18.949928 15.958312 -1.960609 -43.697918 82.172515 -23.196016 -9.577837 -1.138177 -3.592519 -10.321010 5.860420 -47.128194 -1.358642 3.642976 58.240280 3.492318 13.897132 -29.124005 -5.414600 -0.000000 -16.627800 11.542923 0.206843 -6.984215 9.919404 -14.804900 -35.902897 -1.631675 -5.861760 77.807160 -2.503128 -13.912473 -6.519518 -0.481000 0.000001 -24.422600
-18.850917 15.977143 -1.973869 -44.148881 82.191455 -23.605162 -9.608346 -1.121361 -3.642559 -10.309084 5.992710 -46.521543 -1.400022 3.596815 57.862214 3.498352 13.886031 -29.312542 -5.471400 0.000001 -16.805200 11.459841 0.268821 -6.932447 10.481037 -14.523664 -37.157470 -1.581109 -5.909081 77.842826 -2.417608 -13.293024 -7.135017 -0.323500 0.000000 -25.289200
-18.752330 15.995859 -1.986219 -44.586273 82.212272 -23.995565 -9.638499 -1.106277 -3.698842 -10.293686 6.130333 -45.911324 -1.441222 3.551136 57.472722 3.501088 13.866058 -29.474182 -5.517800 0.000000 -17.025700 11.369898 0.334363 -6.870496 11.042390 -14.193606 -38.406058 -1.523018 -5.947241 77.760336 -2.326273 -12.640775 -7.599810 -0.209500 -0.000001 -26.279400
-18.654141 16.014416 -1.997625 -44.992809 82.234739 -24.349766 -9.668323 -1.092478 -3.761477 -10.276357 6.273817 -45.298978 -1.482287 3.506379 57.074916 3.500702 13.837625 -29.611218 -5.554500 -0.000001 -17.269901 11.273223 0.403805 -6.798944 11.597706 -13.814186 -39.645943 -1.457053 -5.977067 77.571271 -2.235541 -11.991383 -7.979019 -0.123000 -0.000000 -27.218100
